<svg width="41" height="41" viewBox="0 0 41 41" fill="none" xmlns="http://www.w3.org/2000/svg">
<path d="M20.4703 40.2468C34.12 40.2468 40.9407 31.2372 40.9407 20.1234C40.9407 9.00955 34.12 0 20.4703 0C6.82073 0 0 9.00955 0 20.1234C0 31.2372 6.82073 40.2468 20.4703 40.2468Z" fill="url(#paint0_radial_2631_925)"/>
<path d="M20.4703 40.2468C34.12 40.2468 40.9407 31.2372 40.9407 20.1234C40.9407 9.00955 34.12 0 20.4703 0C6.82073 0 0 9.00955 0 20.1234C0 31.2372 6.82073 40.2468 20.4703 40.2468Z" fill="url(#paint1_radial_2631_925)"/>
<path d="M20.4703 40.2468C34.12 40.2468 40.9407 31.2372 40.9407 20.1234C40.9407 9.00955 34.12 0 20.4703 0C6.82073 0 0 9.00955 0 20.1234C0 31.2372 6.82073 40.2468 20.4703 40.2468Z" fill="url(#paint2_radial_2631_925)"/>
<path d="M20.4703 40.2468C34.12 40.2468 40.9407 31.2372 40.9407 20.1234C40.9407 9.00955 34.12 0 20.4703 0C6.82073 0 0 9.00955 0 20.1234C0 31.2372 6.82073 40.2468 20.4703 40.2468Z" fill="url(#paint3_radial_2631_925)" fill-opacity="0.6"/>
<path d="M20.4703 40.2468C34.12 40.2468 40.9407 31.2372 40.9407 20.1234C40.9407 9.00955 34.12 0 20.4703 0C6.82073 0 0 9.00955 0 20.1234C0 31.2372 6.82073 40.2468 20.4703 40.2468Z" fill="url(#paint4_radial_2631_925)"/>
<path d="M20.4703 40.2468C34.12 40.2468 40.9407 31.2372 40.9407 20.1234C40.9407 9.00955 34.12 0 20.4703 0C6.82073 0 0 9.00955 0 20.1234C0 31.2372 6.82073 40.2468 20.4703 40.2468Z" fill="url(#paint5_radial_2631_925)"/>
<path d="M20.4703 40.2468C34.12 40.2468 40.9407 31.2372 40.9407 20.1234C40.9407 9.00955 34.12 0 20.4703 0C6.82073 0 0 9.00955 0 20.1234C0 31.2372 6.82073 40.2468 20.4703 40.2468Z" fill="url(#paint6_radial_2631_925)"/>
<path d="M20.4703 40.2468C34.12 40.2468 40.9407 31.2372 40.9407 20.1234C40.9407 9.00955 34.12 0 20.4703 0C6.82073 0 0 9.00955 0 20.1234C0 31.2372 6.82073 40.2468 20.4703 40.2468Z" fill="url(#paint7_radial_2631_925)"/>
<g filter="url(#filter0_f_2631_925)">
<path d="M8.38538 20.1056C8.59835 20.975 9.21025 22.6264 11.1641 23.103C11.4553 23.174 11.7416 23.2257 12.0287 23.2647C12.0426 23.2665 12.0566 23.2681 12.0707 23.2694C16.262 23.6564 19.0328 20.1657 19.1681 16.368C19.1794 16.0532 19.4253 15.787 19.7449 15.7829C19.9152 15.7808 20.0917 15.781 20.2733 15.7841C20.5917 15.7896 20.836 16.055 20.8473 16.3685C20.9841 20.1661 23.7523 23.6565 27.9445 23.2694C27.9585 23.2681 27.9725 23.2665 27.9865 23.2647C28.2736 23.2257 28.5599 23.174 28.8511 23.103C31.4395 22.4716 33.0452 20.7955 33.8664 18.9976C33.739 18.237 33.5576 17.5001 33.3223 16.793C33.0766 18.9066 31.9279 19.1734 28.8511 19.924C28.5979 19.9857 27.7325 20.5802 27.4743 20.6152C24.5535 20.885 23.7321 18.9976 22.0765 15.9839L22.0763 15.9539C22.0763 15.9401 22.0764 15.9262 22.0767 15.9124C22.1839 15.9262 22.2916 15.9413 22.3998 15.9577L22.6661 14.2546C22.9739 13.8638 23.3854 13.5562 23.86 13.3722C23.9715 13.3248 24.2324 13.2169 25.0389 13.0687C25.8711 12.9159 28.0926 12.9176 29.4484 12.9187L29.751 12.9188C30.4669 12.9188 31.117 13.1236 31.537 13.3109C31.1939 12.8455 30.8163 12.4061 30.4041 11.9955C30.19 11.9726 29.9708 11.9596 29.751 11.9596L29.4447 11.9594C28.7691 11.9589 27.8655 11.9582 27.0252 11.977C26.211 11.9952 25.0049 12.0463 24.498 12.1394C23.6598 12.2934 23.3218 12.4167 23.126 12.4992C22.5877 12.7105 22.1255 13.0363 21.7606 13.447C21.5207 13.717 21.1808 13.8973 20.8169 13.8814C20.2326 13.8559 19.6832 13.8589 19.1914 13.8785C18.8293 13.8929 18.4916 13.7133 18.2527 13.4449C17.8881 13.0352 17.4265 12.7101 16.8892 12.4992C16.6934 12.4167 16.3553 12.2934 15.5172 12.1394C15.0103 12.0463 13.8042 11.9952 12.99 11.977C12.1497 11.9582 11.2461 11.9589 10.5705 11.9594L10.558 11.9594C10.2353 12.278 9.93352 12.6142 9.65277 12.9665C9.84807 12.9366 10.0533 12.9188 10.2642 12.9188L10.5668 12.9187C11.9226 12.9176 14.1441 12.9159 14.9762 13.0687C15.7828 13.2169 16.0436 13.3248 16.1552 13.3722C16.6123 13.5495 17.0109 13.8413 17.3146 14.2118L17.6473 15.9523C17.7267 15.9376 17.8244 15.922 17.9384 15.9063C17.9387 15.9221 17.9388 15.938 17.9388 15.9539L17.9387 15.9839C18.1136 20.0232 14.9914 22.4577 12.0707 22.1879C11.8125 22.1529 11.5604 22.1072 11.3072 22.0454C9.06933 21.4995 9.23195 19.8798 8.59835 18.337C8.48594 18.9037 8.43634 19.5132 8.38538 20.1056Z" fill="url(#paint8_linear_2631_925)"/>
</g>
<path fill-rule="evenodd" clip-rule="evenodd" d="M17.3886 11.5399C17.8913 11.7373 18.3276 12.0344 18.6803 12.4073C18.9722 12.716 19.367 12.9302 19.7916 12.9155C20.2283 12.9004 20.7078 12.8986 21.215 12.9181C21.6417 12.9344 22.0391 12.7193 22.3323 12.4089C22.6852 12.0353 23.1221 11.7376 23.6254 11.5399C23.8212 11.4575 24.1593 11.3342 24.9974 11.1802C25.5044 11.0871 26.7105 11.0359 27.5246 11.0177C28.365 10.9989 29.2685 10.9997 29.9441 11.0002L30.2504 11.0004C31.4084 11.0004 32.5508 11.3608 33.0038 11.6299C34.0231 12.1395 34.9662 13.1137 35.0339 14.7902C35.0367 14.8152 35.0385 14.8405 35.0393 14.8659C35.1196 17.4447 33.4942 21.133 29.3506 22.1438C29.0593 22.2148 28.773 22.2665 28.4859 22.3054C28.472 22.3073 28.458 22.3089 28.4439 22.3102C24.2934 22.6934 21.5387 19.2758 21.3516 15.5223C21.3328 15.1464 21.0445 14.8276 20.6681 14.8234C20.5599 14.8222 20.4537 14.822 20.3497 14.8227C19.9718 14.8252 19.6815 15.1449 19.6628 15.5223C19.4768 19.2757 16.7196 22.6933 12.5701 22.3102C12.5561 22.3089 12.5421 22.3073 12.5281 22.3054C12.241 22.2665 11.9548 22.2148 11.6635 22.1438C7.51983 21.133 5.89452 17.4447 5.97481 14.8659C5.9756 14.8405 5.97741 14.8152 5.98022 14.7902C6.04786 13.1137 6.99102 12.1395 8.01025 11.6299C8.46328 11.3608 9.60571 11.0004 10.7637 11.0004L11.0699 11.0002C11.7455 10.9997 12.6491 10.9989 13.4894 11.0177C14.3036 11.0359 15.5097 11.0871 16.0167 11.1802C16.8548 11.3342 17.1929 11.4575 17.3886 11.5399ZM7.35436 13.9368C7.59765 13.3529 8.04924 12.8758 8.6572 12.5148C8.99904 12.3118 9.8248 11.9596 10.7637 11.9596L11.0662 11.9594C12.4221 11.9584 14.6436 11.9566 15.4757 12.1095C16.2823 12.2576 16.5431 12.3655 16.6546 12.413C17.1117 12.5902 17.5103 12.8821 17.8141 13.2525L18.1468 14.9931C18.2261 14.9784 18.3238 14.9627 18.4379 14.9471C18.4381 14.9629 18.4383 14.9788 18.4383 14.9947L18.4381 15.0246C18.6131 19.0639 15.4909 21.4985 12.5701 21.2287C12.3119 21.1937 12.0599 21.1479 11.8066 21.0862C8.72979 20.3356 7.43804 17.9473 7.19229 15.8337C7.15444 15.5082 7.1414 15.1893 7.15047 14.8838L7.15073 14.8752L7.15269 14.8753L7.15306 14.8659C7.16661 14.5316 7.23572 14.2215 7.35436 13.9368ZM22.5761 14.9532C22.5759 14.967 22.5758 14.9808 22.5758 14.9947L22.576 15.0246C22.401 19.0639 25.5232 21.4985 28.4439 21.2287C28.7022 21.1937 28.9542 21.1479 29.2075 21.0862C32.2843 20.3356 33.576 17.9473 33.8218 15.8337C33.8596 15.5082 33.8727 15.1893 33.8636 14.8838L33.8633 14.8752L33.8614 14.8753L33.861 14.8659C33.8475 14.5316 33.7784 14.2215 33.6597 13.9368C33.4164 13.3529 32.9648 12.8758 32.3569 12.5148C32.015 12.3118 31.1893 11.9596 30.2504 11.9596L29.9479 11.9594C28.592 11.9584 26.3705 11.9566 25.5384 12.1095C24.7318 12.2576 24.471 12.3655 24.3594 12.413C23.8849 12.597 23.4734 12.9045 23.1656 13.2954L22.8992 14.9985C22.7911 14.9821 22.6833 14.967 22.5761 14.9532Z" fill="url(#paint9_radial_2631_925)"/>
<path fill-rule="evenodd" clip-rule="evenodd" d="M17.3886 11.5399C17.8913 11.7373 18.3276 12.0344 18.6803 12.4073C18.9722 12.716 19.367 12.9302 19.7916 12.9155C20.2283 12.9004 20.7078 12.8986 21.215 12.9181C21.6417 12.9344 22.0391 12.7193 22.3323 12.4089C22.6852 12.0353 23.1221 11.7376 23.6254 11.5399C23.8212 11.4575 24.1593 11.3342 24.9974 11.1802C25.5044 11.0871 26.7105 11.0359 27.5246 11.0177C28.365 10.9989 29.2685 10.9997 29.9441 11.0002L30.2504 11.0004C31.4084 11.0004 32.5508 11.3608 33.0038 11.6299C34.0231 12.1395 34.9662 13.1137 35.0339 14.7902C35.0367 14.8152 35.0385 14.8405 35.0393 14.8659C35.1196 17.4447 33.4942 21.133 29.3506 22.1438C29.0593 22.2148 28.773 22.2665 28.4859 22.3054C28.472 22.3073 28.458 22.3089 28.4439 22.3102C24.2934 22.6934 21.5387 19.2758 21.3516 15.5223C21.3328 15.1464 21.0445 14.8276 20.6681 14.8234C20.5599 14.8222 20.4537 14.822 20.3497 14.8227C19.9718 14.8252 19.6815 15.1449 19.6628 15.5223C19.4768 19.2757 16.7196 22.6933 12.5701 22.3102C12.5561 22.3089 12.5421 22.3073 12.5281 22.3054C12.241 22.2665 11.9548 22.2148 11.6635 22.1438C7.51983 21.133 5.89452 17.4447 5.97481 14.8659C5.9756 14.8405 5.97741 14.8152 5.98022 14.7902C6.04786 13.1137 6.99102 12.1395 8.01025 11.6299C8.46328 11.3608 9.60571 11.0004 10.7637 11.0004L11.0699 11.0002C11.7455 10.9997 12.6491 10.9989 13.4894 11.0177C14.3036 11.0359 15.5097 11.0871 16.0167 11.1802C16.8548 11.3342 17.1929 11.4575 17.3886 11.5399ZM7.35436 13.9368C7.59765 13.3529 8.04924 12.8758 8.6572 12.5148C8.99904 12.3118 9.8248 11.9596 10.7637 11.9596L11.0662 11.9594C12.4221 11.9584 14.6436 11.9566 15.4757 12.1095C16.2823 12.2576 16.5431 12.3655 16.6546 12.413C17.1117 12.5902 17.5103 12.8821 17.8141 13.2525L18.1468 14.9931C18.2261 14.9784 18.3238 14.9627 18.4379 14.9471C18.4381 14.9629 18.4383 14.9788 18.4383 14.9947L18.4381 15.0246C18.6131 19.0639 15.4909 21.4985 12.5701 21.2287C12.3119 21.1937 12.0599 21.1479 11.8066 21.0862C8.72979 20.3356 7.43804 17.9473 7.19229 15.8337C7.15444 15.5082 7.1414 15.1893 7.15047 14.8838L7.15073 14.8752L7.15269 14.8753L7.15306 14.8659C7.16661 14.5316 7.23572 14.2215 7.35436 13.9368ZM22.5761 14.9532C22.5759 14.967 22.5758 14.9808 22.5758 14.9947L22.576 15.0246C22.401 19.0639 25.5232 21.4985 28.4439 21.2287C28.7022 21.1937 28.9542 21.1479 29.2075 21.0862C32.2843 20.3356 33.576 17.9473 33.8218 15.8337C33.8596 15.5082 33.8727 15.1893 33.8636 14.8838L33.8633 14.8752L33.8614 14.8753L33.861 14.8659C33.8475 14.5316 33.7784 14.2215 33.6597 13.9368C33.4164 13.3529 32.9648 12.8758 32.3569 12.5148C32.015 12.3118 31.1893 11.9596 30.2504 11.9596L29.9479 11.9594C28.592 11.9584 26.3705 11.9566 25.5384 12.1095C24.7318 12.2576 24.471 12.3655 24.3594 12.413C23.8849 12.597 23.4734 12.9045 23.1656 13.2954L22.8992 14.9985C22.7911 14.9821 22.6833 14.967 22.5761 14.9532Z" fill="url(#paint10_radial_2631_925)"/>
<path fill-rule="evenodd" clip-rule="evenodd" d="M17.3886 11.5399C17.8913 11.7373 18.3276 12.0344 18.6803 12.4073C18.9722 12.716 19.367 12.9302 19.7916 12.9155C20.2283 12.9004 20.7078 12.8986 21.215 12.9181C21.6417 12.9344 22.0391 12.7193 22.3323 12.4089C22.6852 12.0353 23.1221 11.7376 23.6254 11.5399C23.8212 11.4575 24.1593 11.3342 24.9974 11.1802C25.5044 11.0871 26.7105 11.0359 27.5246 11.0177C28.365 10.9989 29.2685 10.9997 29.9441 11.0002L30.2504 11.0004C31.4084 11.0004 32.5508 11.3608 33.0038 11.6299C34.0231 12.1395 34.9662 13.1137 35.0339 14.7902C35.0367 14.8152 35.0385 14.8405 35.0393 14.8659C35.1196 17.4447 33.4942 21.133 29.3506 22.1438C29.0593 22.2148 28.773 22.2665 28.4859 22.3054C28.472 22.3073 28.458 22.3089 28.4439 22.3102C24.2934 22.6934 21.5387 19.2758 21.3516 15.5223C21.3328 15.1464 21.0445 14.8276 20.6681 14.8234C20.5599 14.8222 20.4537 14.822 20.3497 14.8227C19.9718 14.8252 19.6815 15.1449 19.6628 15.5223C19.4768 19.2757 16.7196 22.6933 12.5701 22.3102C12.5561 22.3089 12.5421 22.3073 12.5281 22.3054C12.241 22.2665 11.9548 22.2148 11.6635 22.1438C7.51983 21.133 5.89452 17.4447 5.97481 14.8659C5.9756 14.8405 5.97741 14.8152 5.98022 14.7902C6.04786 13.1137 6.99102 12.1395 8.01025 11.6299C8.46328 11.3608 9.60571 11.0004 10.7637 11.0004L11.0699 11.0002C11.7455 10.9997 12.6491 10.9989 13.4894 11.0177C14.3036 11.0359 15.5097 11.0871 16.0167 11.1802C16.8548 11.3342 17.1929 11.4575 17.3886 11.5399ZM7.35436 13.9368C7.59765 13.3529 8.04924 12.8758 8.6572 12.5148C8.99904 12.3118 9.8248 11.9596 10.7637 11.9596L11.0662 11.9594C12.4221 11.9584 14.6436 11.9566 15.4757 12.1095C16.2823 12.2576 16.5431 12.3655 16.6546 12.413C17.1117 12.5902 17.5103 12.8821 17.8141 13.2525L18.1468 14.9931C18.2261 14.9784 18.3238 14.9627 18.4379 14.9471C18.4381 14.9629 18.4383 14.9788 18.4383 14.9947L18.4381 15.0246C18.6131 19.0639 15.4909 21.4985 12.5701 21.2287C12.3119 21.1937 12.0599 21.1479 11.8066 21.0862C8.72979 20.3356 7.43804 17.9473 7.19229 15.8337C7.15444 15.5082 7.1414 15.1893 7.15047 14.8838L7.15073 14.8752L7.15269 14.8753L7.15306 14.8659C7.16661 14.5316 7.23572 14.2215 7.35436 13.9368ZM22.5761 14.9532C22.5759 14.967 22.5758 14.9808 22.5758 14.9947L22.576 15.0246C22.401 19.0639 25.5232 21.4985 28.4439 21.2287C28.7022 21.1937 28.9542 21.1479 29.2075 21.0862C32.2843 20.3356 33.576 17.9473 33.8218 15.8337C33.8596 15.5082 33.8727 15.1893 33.8636 14.8838L33.8633 14.8752L33.8614 14.8753L33.861 14.8659C33.8475 14.5316 33.7784 14.2215 33.6597 13.9368C33.4164 13.3529 32.9648 12.8758 32.3569 12.5148C32.015 12.3118 31.1893 11.9596 30.2504 11.9596L29.9479 11.9594C28.592 11.9584 26.3705 11.9566 25.5384 12.1095C24.7318 12.2576 24.471 12.3655 24.3594 12.413C23.8849 12.597 23.4734 12.9045 23.1656 13.2954L22.8992 14.9985C22.7911 14.9821 22.6833 14.967 22.5761 14.9532Z" fill="url(#paint11_radial_2631_925)"/>
<path d="M8.65726 12.5148C8.9991 12.3118 9.82486 11.9596 10.7637 11.9596C10.8585 11.9596 10.9597 11.9595 11.0663 11.9594C12.4221 11.9584 14.6436 11.9566 15.4757 12.1095C16.2823 12.2576 16.5431 12.3655 16.6547 12.413C17.6994 12.8181 18.4383 13.8216 18.4383 14.9947L18.4382 15.0246C18.6131 19.0639 15.491 21.4985 12.5702 21.2287C12.312 21.1936 12.0599 21.1479 11.8067 21.0861C8.25137 20.2189 7.07951 17.1649 7.15081 14.8748L7.15276 14.8753C7.19105 13.8507 7.75006 13.0535 8.65726 12.5148Z" fill="url(#paint12_radial_2631_925)"/>
<path d="M8.65726 12.5148C8.9991 12.3118 9.82486 11.9596 10.7637 11.9596C10.8585 11.9596 10.9597 11.9595 11.0663 11.9594C12.4221 11.9584 14.6436 11.9566 15.4757 12.1095C16.2823 12.2576 16.5431 12.3655 16.6547 12.413C17.6994 12.8181 18.4383 13.8216 18.4383 14.9947L18.4382 15.0246C18.6131 19.0639 15.491 21.4985 12.5702 21.2287C12.312 21.1936 12.0599 21.1479 11.8067 21.0861C8.25137 20.2189 7.07951 17.1649 7.15081 14.8748L7.15276 14.8753C7.19105 13.8507 7.75006 13.0535 8.65726 12.5148Z" fill="url(#paint13_radial_2631_925)"/>
<path d="M8.65726 12.5148C8.9991 12.3118 9.82486 11.9596 10.7637 11.9596C10.8585 11.9596 10.9597 11.9595 11.0663 11.9594C12.4221 11.9584 14.6436 11.9566 15.4757 12.1095C16.2823 12.2576 16.5431 12.3655 16.6547 12.413C17.6994 12.8181 18.4383 13.8216 18.4383 14.9947L18.4382 15.0246C18.6131 19.0639 15.491 21.4985 12.5702 21.2287C12.312 21.1936 12.0599 21.1479 11.8067 21.0861C8.25137 20.2189 7.07951 17.1649 7.15081 14.8748L7.15276 14.8753C7.19105 13.8507 7.75006 13.0535 8.65726 12.5148Z" fill="url(#paint14_radial_2631_925)"/>
<path d="M8.65726 12.5148C8.9991 12.3118 9.82486 11.9596 10.7637 11.9596C10.8585 11.9596 10.9597 11.9595 11.0663 11.9594C12.4221 11.9584 14.6436 11.9566 15.4757 12.1095C16.2823 12.2576 16.5431 12.3655 16.6547 12.413C17.6994 12.8181 18.4383 13.8216 18.4383 14.9947L18.4382 15.0246C18.6131 19.0639 15.491 21.4985 12.5702 21.2287C12.312 21.1936 12.0599 21.1479 11.8067 21.0861C8.25137 20.2189 7.07951 17.1649 7.15081 14.8748L7.15276 14.8753C7.19105 13.8507 7.75006 13.0535 8.65726 12.5148Z" fill="url(#paint15_radial_2631_925)"/>
<ellipse cx="1.45066" cy="1.80768" rx="1.45066" ry="1.80768" transform="matrix(0.902204 -0.43131 0.441801 0.897113 13.6672 13.8788)" fill="url(#paint16_linear_2631_925)"/>
<path d="M32.3569 12.5148C32.0151 12.3118 31.1893 11.9596 30.2504 11.9596C30.1557 11.9596 30.0544 11.9595 29.9479 11.9594C28.592 11.9584 26.3705 11.9566 25.5384 12.1095C24.7318 12.2576 24.471 12.3655 24.3595 12.413C23.3148 12.8181 22.5758 13.8216 22.5758 14.9947L22.576 15.0246C22.401 19.0639 25.5232 21.4985 28.444 21.2287C28.7022 21.1936 28.9542 21.1479 29.2075 21.0861C32.7628 20.2189 33.9347 17.1649 33.8634 14.8748L33.8614 14.8753C33.8231 13.8507 33.2641 13.0535 32.3569 12.5148Z" fill="url(#paint17_radial_2631_925)"/>
<path d="M32.3569 12.5148C32.0151 12.3118 31.1893 11.9596 30.2504 11.9596C30.1557 11.9596 30.0544 11.9595 29.9479 11.9594C28.592 11.9584 26.3705 11.9566 25.5384 12.1095C24.7318 12.2576 24.471 12.3655 24.3595 12.413C23.3148 12.8181 22.5758 13.8216 22.5758 14.9947L22.576 15.0246C22.401 19.0639 25.5232 21.4985 28.444 21.2287C28.7022 21.1936 28.9542 21.1479 29.2075 21.0861C32.7628 20.2189 33.9347 17.1649 33.8634 14.8748L33.8614 14.8753C33.8231 13.8507 33.2641 13.0535 32.3569 12.5148Z" fill="url(#paint18_radial_2631_925)"/>
<path d="M32.3569 12.5148C32.0151 12.3118 31.1893 11.9596 30.2504 11.9596C30.1557 11.9596 30.0544 11.9595 29.9479 11.9594C28.592 11.9584 26.3705 11.9566 25.5384 12.1095C24.7318 12.2576 24.471 12.3655 24.3595 12.413C23.3148 12.8181 22.5758 13.8216 22.5758 14.9947L22.576 15.0246C22.401 19.0639 25.5232 21.4985 28.444 21.2287C28.7022 21.1936 28.9542 21.1479 29.2075 21.0861C32.7628 20.2189 33.9347 17.1649 33.8634 14.8748L33.8614 14.8753C33.8231 13.8507 33.2641 13.0535 32.3569 12.5148Z" fill="url(#paint19_radial_2631_925)"/>
<path d="M32.3569 12.5148C32.0151 12.3118 31.1893 11.9596 30.2504 11.9596C30.1557 11.9596 30.0544 11.9595 29.9479 11.9594C28.592 11.9584 26.3705 11.9566 25.5384 12.1095C24.7318 12.2576 24.471 12.3655 24.3595 12.413C23.3148 12.8181 22.5758 13.8216 22.5758 14.9947L22.576 15.0246C22.401 19.0639 25.5232 21.4985 28.444 21.2287C28.7022 21.1936 28.9542 21.1479 29.2075 21.0861C32.7628 20.2189 33.9347 17.1649 33.8634 14.8748L33.8614 14.8753C33.8231 13.8507 33.2641 13.0535 32.3569 12.5148Z" fill="url(#paint20_radial_2631_925)"/>
<ellipse cx="1.45066" cy="1.80768" rx="1.45066" ry="1.80768" transform="matrix(0.902204 -0.43131 0.441801 0.897113 29.2779 13.8788)" fill="url(#paint21_linear_2631_925)"/>
<path d="M12.6805 26.723C12.6805 26.723 14.9331 29.9375 20.1893 29.9375C25.4455 29.9375 27.6981 26.723 27.6981 26.723" stroke="url(#paint22_radial_2631_925)" stroke-width="2" stroke-linecap="round" stroke-linejoin="round"/>
<defs>
<filter id="filter0_f_2631_925" x="7.00538" y="10.5792" width="28.241" height="14.0996" filterUnits="userSpaceOnUse" color-interpolation-filters="sRGB">
<feFlood flood-opacity="0" result="BackgroundImageFix"/>
<feBlend mode="normal" in="SourceGraphic" in2="BackgroundImageFix" result="shape"/>
<feGaussianBlur stdDeviation="0.69" result="effect1_foregroundBlur_2631_925"/>
</filter>
<radialGradient id="paint0_radial_2631_925" cx="0" cy="0" r="1" gradientTransform="matrix(-37.2882 39.5312 -40.2128 -36.6562 34.3637 10.0625)" gradientUnits="userSpaceOnUse">
<stop stop-color="#FFF478"/>
<stop offset="0.474827" stop-color="#FFB02E"/>
<stop offset="1" stop-color="#F70A8D"/>
</radialGradient>
<radialGradient id="paint1_radial_2631_925" cx="0" cy="0" r="1" gradientTransform="matrix(-38.0194 41.6875 -42.4062 -37.375 34.3637 10.0625)" gradientUnits="userSpaceOnUse">
<stop stop-color="#FFF478"/>
<stop offset="0.474827" stop-color="#FFB02E"/>
<stop offset="1" stop-color="#F70A8D"/>
</radialGradient>
<radialGradient id="paint2_radial_2631_925" cx="0" cy="0" r="1" gradientTransform="matrix(-5.118 25.1562 -32.7759 -6.44408 20.472 15.0938)" gradientUnits="userSpaceOnUse">
<stop offset="0.787821" stop-color="#F59639" stop-opacity="0"/>
<stop offset="0.972509" stop-color="#FF7DCE"/>
</radialGradient>
<radialGradient id="paint3_radial_2631_925" cx="0" cy="0" r="1" gradientTransform="matrix(-42.4063 41.6875 -42.4063 -41.6875 23.3966 17.25)" gradientUnits="userSpaceOnUse">
<stop offset="0.314853" stop-opacity="0"/>
<stop offset="1"/>
</radialGradient>
<radialGradient id="paint4_radial_2631_925" cx="0" cy="0" r="1" gradientTransform="matrix(8.77371 39.5312 -40.2128 8.625 20.472 21.5625)" gradientUnits="userSpaceOnUse">
<stop offset="0.507903" stop-color="#7D6133" stop-opacity="0"/>
<stop offset="1" stop-color="#715B32"/>
</radialGradient>
<radialGradient id="paint5_radial_2631_925" cx="0" cy="0" r="1" gradientTransform="matrix(10.9671 15.8125 -11.6593 7.81479 21.2031 20.8438)" gradientUnits="userSpaceOnUse">
<stop stop-color="#FFB849"/>
<stop offset="1" stop-color="#FFB847" stop-opacity="0"/>
</radialGradient>
<radialGradient id="paint6_radial_2631_925" cx="0" cy="0" r="1" gradientTransform="matrix(16.8163 2.875 -2.92457 16.5312 27.0523 23)" gradientUnits="userSpaceOnUse">
<stop stop-color="#FFA64B"/>
<stop offset="0.900412" stop-color="#FFAE46" stop-opacity="0"/>
</radialGradient>
<radialGradient id="paint7_radial_2631_925" cx="0" cy="0" r="1" gradientTransform="matrix(62.1471 58.9375 -59.9537 61.0938 22.6654 18.6875)" gradientUnits="userSpaceOnUse">
<stop offset="0.185425" stop-opacity="0"/>
<stop offset="1" stop-opacity="0.4"/>
</radialGradient>
<linearGradient id="paint8_linear_2631_925" x1="27.0179" y1="17.6291" x2="13.379" y2="22.9084" gradientUnits="userSpaceOnUse">
<stop stop-color="#E78F00"/>
<stop offset="1" stop-color="#D07000"/>
</linearGradient>
<radialGradient id="paint9_radial_2631_925" cx="0" cy="0" r="1" gradientTransform="matrix(2.31227 11.5709 24.3361 -4.72096 25.4966 11.6224)" gradientUnits="userSpaceOnUse">
<stop stop-color="#5F5B9B"/>
<stop offset="1" stop-color="#5C3085"/>
</radialGradient>
<radialGradient id="paint10_radial_2631_925" cx="0" cy="0" r="1" gradientTransform="matrix(1.11037 5.17518 5.90077 -1.22902 28.1893 16.6691)" gradientUnits="userSpaceOnUse">
<stop offset="0.776042" stop-color="#77579C"/>
<stop offset="0.9375" stop-color="#77579C" stop-opacity="0"/>
</radialGradient>
<radialGradient id="paint11_radial_2631_925" cx="0" cy="0" r="1" gradientTransform="matrix(-2.4644 -3.77701 -2.814 1.78235 26.2267 15.6991)" gradientUnits="userSpaceOnUse">
<stop offset="0.769354" stop-color="#4E3D92"/>
<stop offset="1" stop-color="#534687" stop-opacity="0"/>
</radialGradient>
<radialGradient id="paint12_radial_2631_925" cx="0" cy="0" r="1" gradientTransform="matrix(-3.04246 4.82618 -5.56464 -3.40537 15.3349 14.7998)" gradientUnits="userSpaceOnUse">
<stop stop-color="#4C3D70"/>
<stop offset="1" stop-color="#361C5D"/>
</radialGradient>
<radialGradient id="paint13_radial_2631_925" cx="0" cy="0" r="1" gradientTransform="matrix(0.365095 7.19431 -10.8429 0.534154 14.1485 14.9497)" gradientUnits="userSpaceOnUse">
<stop offset="0.647365" stop-color="#5B2B84" stop-opacity="0"/>
<stop offset="1" stop-color="#5B2B84"/>
</radialGradient>
<radialGradient id="paint14_radial_2631_925" cx="0" cy="0" r="1" gradientTransform="matrix(-1.8559 -10.9114 10.967 -1.81079 12.5055 22.204)" gradientUnits="userSpaceOnUse">
<stop offset="0.858612" stop-color="#2E1D57" stop-opacity="0"/>
<stop offset="1" stop-color="#20143D"/>
</radialGradient>
<radialGradient id="paint15_radial_2631_925" cx="0" cy="0" r="1" gradientTransform="matrix(-1.58208 7.19431 -6.85298 -1.46293 13.4487 14.2303)" gradientUnits="userSpaceOnUse">
<stop offset="0.872281" stop-color="#2E1D57" stop-opacity="0"/>
<stop offset="1" stop-color="#20143D" stop-opacity="0.6"/>
</radialGradient>
<linearGradient id="paint16_linear_2631_925" x1="2.08541" y1="0.511456" x2="0.753157" y2="3.5623" gradientUnits="userSpaceOnUse">
<stop stop-color="white"/>
<stop offset="0.973958" stop-color="white" stop-opacity="0"/>
</linearGradient>
<radialGradient id="paint17_radial_2631_925" cx="0" cy="0" r="1" gradientTransform="matrix(-3.34671 5.42571 8.27176 4.95296 28.9347 14.4101)" gradientUnits="userSpaceOnUse">
<stop stop-color="#4C3D70"/>
<stop offset="1" stop-color="#361C5D"/>
</radialGradient>
<radialGradient id="paint18_radial_2631_925" cx="0" cy="0" r="1" gradientTransform="matrix(-0.365095 7.19431 10.8429 0.534154 26.8657 14.9497)" gradientUnits="userSpaceOnUse">
<stop offset="0.647365" stop-color="#5B2B84" stop-opacity="0"/>
<stop offset="1" stop-color="#5B2B84"/>
</radialGradient>
<radialGradient id="paint19_radial_2631_925" cx="0" cy="0" r="1" gradientTransform="matrix(2.14685 -9.62239 -9.67141 -2.09466 28.2177 20.915)" gradientUnits="userSpaceOnUse">
<stop offset="0.858612" stop-color="#2E1D57" stop-opacity="0"/>
<stop offset="1" stop-color="#20143D"/>
</radialGradient>
<radialGradient id="paint20_radial_2631_925" cx="0" cy="0" r="1" gradientTransform="matrix(1.58208 7.19431 6.85298 -1.46293 27.5655 14.2303)" gradientUnits="userSpaceOnUse">
<stop offset="0.872281" stop-color="#2E1D57" stop-opacity="0"/>
<stop offset="1" stop-color="#20143D" stop-opacity="0.6"/>
</radialGradient>
<linearGradient id="paint21_linear_2631_925" x1="2.08541" y1="0.511456" x2="0.753157" y2="3.5623" gradientUnits="userSpaceOnUse">
<stop stop-color="white"/>
<stop offset="0.973958" stop-color="white" stop-opacity="0"/>
</linearGradient>
<radialGradient id="paint22_radial_2631_925" cx="0" cy="0" r="1" gradientUnits="userSpaceOnUse" gradientTransform="translate(20.1893 24.818) rotate(90) scale(17.5792 27.1116)">
<stop offset="0.145833" stop-color="#2E1529"/>
<stop offset="0.276042" stop-color="#503A4A"/>
<stop offset="0.342857" stop-color="#4B2744"/>
</radialGradient>
</defs>
</svg>
