<svg width="41" height="41" viewBox="0 0 41 41" fill="none" xmlns="http://www.w3.org/2000/svg">
<path d="M20.4703 40.2468C34.12 40.2468 40.9407 31.2372 40.9407 20.1234C40.9407 9.00955 34.12 0 20.4703 0C6.82073 0 0 9.00955 0 20.1234C0 31.2372 6.82073 40.2468 20.4703 40.2468Z" fill="url(#paint0_radial_2631_946)"/>
<path d="M20.4703 40.2468C34.12 40.2468 40.9407 31.2372 40.9407 20.1234C40.9407 9.00955 34.12 0 20.4703 0C6.82073 0 0 9.00955 0 20.1234C0 31.2372 6.82073 40.2468 20.4703 40.2468Z" fill="url(#paint1_radial_2631_946)"/>
<path d="M20.4703 40.2468C34.12 40.2468 40.9407 31.2372 40.9407 20.1234C40.9407 9.00955 34.12 0 20.4703 0C6.82073 0 0 9.00955 0 20.1234C0 31.2372 6.82073 40.2468 20.4703 40.2468Z" fill="url(#paint2_radial_2631_946)"/>
<path d="M20.4703 40.2468C34.12 40.2468 40.9407 31.2372 40.9407 20.1234C40.9407 9.00955 34.12 0 20.4703 0C6.82073 0 0 9.00955 0 20.1234C0 31.2372 6.82073 40.2468 20.4703 40.2468Z" fill="url(#paint3_radial_2631_946)" fill-opacity="0.6"/>
<path d="M20.4703 40.2468C34.12 40.2468 40.9407 31.2372 40.9407 20.1234C40.9407 9.00955 34.12 0 20.4703 0C6.82073 0 0 9.00955 0 20.1234C0 31.2372 6.82073 40.2468 20.4703 40.2468Z" fill="url(#paint4_radial_2631_946)"/>
<path d="M20.4703 40.2468C34.12 40.2468 40.9407 31.2372 40.9407 20.1234C40.9407 9.00955 34.12 0 20.4703 0C6.82073 0 0 9.00955 0 20.1234C0 31.2372 6.82073 40.2468 20.4703 40.2468Z" fill="url(#paint5_radial_2631_946)"/>
<path d="M20.4703 40.2468C34.12 40.2468 40.9407 31.2372 40.9407 20.1234C40.9407 9.00955 34.12 0 20.4703 0C6.82073 0 0 9.00955 0 20.1234C0 31.2372 6.82073 40.2468 20.4703 40.2468Z" fill="url(#paint6_radial_2631_946)"/>
<path d="M20.4703 40.2468C34.12 40.2468 40.9407 31.2372 40.9407 20.1234C40.9407 9.00955 34.12 0 20.4703 0C6.82073 0 0 9.00955 0 20.1234C0 31.2372 6.82073 40.2468 20.4703 40.2468Z" fill="url(#paint7_radial_2631_946)"/>
<path d="M19.4345 14.2312C19.4345 15.8865 18.6657 17.3622 17.4657 18.3208C16.5321 18.0076 15.3388 17.7188 14.2032 17.7188C13.0677 17.7188 11.8744 18.0076 10.9408 18.3208C9.74077 17.3622 8.97198 15.8865 8.97198 14.2312C8.97198 11.3421 11.3141 9 14.2032 9C17.0924 9 19.4345 11.3421 19.4345 14.2312Z" fill="white"/>
<path d="M14.7845 17.1375C16.7106 17.1375 18.272 15.5761 18.272 13.65C18.272 11.7239 16.7106 10.1625 14.7845 10.1625C12.8584 10.1625 11.297 11.7239 11.297 13.65C11.297 15.5761 12.8584 17.1375 14.7845 17.1375Z" fill="url(#paint8_linear_2631_946)"/>
<path d="M32.222 14.2312C32.222 15.8865 31.4532 17.3622 30.2532 18.3208C29.3195 18.0076 28.1262 17.7188 26.9907 17.7188C25.8552 17.7188 24.6619 18.0076 23.7282 18.3208C22.5282 17.3622 21.7595 15.8865 21.7595 14.2312C21.7595 11.3421 24.1016 9 26.9907 9C29.8799 9 32.222 11.3421 32.222 14.2312Z" fill="white"/>
<path d="M26.4095 17.1375C28.3356 17.1375 29.897 15.5761 29.897 13.65C29.897 11.7239 28.3356 10.1625 26.4095 10.1625C24.4834 10.1625 22.922 11.7239 22.922 13.65C22.922 15.5761 24.4834 17.1375 26.4095 17.1375Z" fill="url(#paint9_linear_2631_946)"/>
<path d="M20.9507 31.0696C10.4377 31.0696 10.4377 20.5565 10.4377 20.5565H20.9507H31.4638C31.4638 20.5565 31.2616 31.0696 20.9507 31.0696Z" fill="url(#paint10_radial_2631_946)"/>
<path d="M12.0552 21.1739V20.5565H29.8465V21.1739C29.8465 21.7262 29.3988 22.1739 28.8465 22.1739H13.0552C12.5029 22.1739 12.0552 21.7262 12.0552 21.1739Z" fill="url(#paint11_linear_2631_946)"/>
<defs>
<radialGradient id="paint0_radial_2631_946" cx="0" cy="0" r="1" gradientTransform="matrix(-37.2882 39.5312 -40.2128 -36.6562 34.3637 10.0625)" gradientUnits="userSpaceOnUse">
<stop stop-color="#FFF478"/>
<stop offset="0.474827" stop-color="#FFB02E"/>
<stop offset="1" stop-color="#F70A8D"/>
</radialGradient>
<radialGradient id="paint1_radial_2631_946" cx="0" cy="0" r="1" gradientTransform="matrix(-38.0194 41.6875 -42.4062 -37.375 34.3637 10.0625)" gradientUnits="userSpaceOnUse">
<stop stop-color="#FFF478"/>
<stop offset="0.474827" stop-color="#FFB02E"/>
<stop offset="1" stop-color="#F70A8D"/>
</radialGradient>
<radialGradient id="paint2_radial_2631_946" cx="0" cy="0" r="1" gradientTransform="matrix(-5.118 25.1562 -32.7759 -6.44408 20.472 15.0938)" gradientUnits="userSpaceOnUse">
<stop offset="0.787821" stop-color="#F59639" stop-opacity="0"/>
<stop offset="0.972509" stop-color="#FF7DCE"/>
</radialGradient>
<radialGradient id="paint3_radial_2631_946" cx="0" cy="0" r="1" gradientTransform="matrix(-42.4063 41.6875 -42.4063 -41.6875 23.3966 17.25)" gradientUnits="userSpaceOnUse">
<stop offset="0.314853" stop-opacity="0"/>
<stop offset="1"/>
</radialGradient>
<radialGradient id="paint4_radial_2631_946" cx="0" cy="0" r="1" gradientTransform="matrix(8.77371 39.5312 -40.2128 8.625 20.472 21.5625)" gradientUnits="userSpaceOnUse">
<stop offset="0.507903" stop-color="#7D6133" stop-opacity="0"/>
<stop offset="1" stop-color="#715B32"/>
</radialGradient>
<radialGradient id="paint5_radial_2631_946" cx="0" cy="0" r="1" gradientTransform="matrix(10.9671 15.8125 -11.6593 7.81479 21.2031 20.8438)" gradientUnits="userSpaceOnUse">
<stop stop-color="#FFB849"/>
<stop offset="1" stop-color="#FFB847" stop-opacity="0"/>
</radialGradient>
<radialGradient id="paint6_radial_2631_946" cx="0" cy="0" r="1" gradientTransform="matrix(16.8163 2.875 -2.92457 16.5312 27.0523 23)" gradientUnits="userSpaceOnUse">
<stop stop-color="#FFA64B"/>
<stop offset="0.900412" stop-color="#FFAE46" stop-opacity="0"/>
</radialGradient>
<radialGradient id="paint7_radial_2631_946" cx="0" cy="0" r="1" gradientTransform="matrix(62.1471 58.9375 -59.9537 61.0938 22.6654 18.6875)" gradientUnits="userSpaceOnUse">
<stop offset="0.185425" stop-opacity="0"/>
<stop offset="1" stop-opacity="0.4"/>
</radialGradient>
<linearGradient id="paint8_linear_2631_946" x1="27.7508" y1="10.1625" x2="26.4095" y2="17.1375" gradientUnits="userSpaceOnUse">
<stop stop-color="#553B3E"/>
<stop offset="1" stop-color="#3D2432"/>
</linearGradient>
<linearGradient id="paint9_linear_2631_946" x1="27.7508" y1="10.1625" x2="26.4095" y2="17.1375" gradientUnits="userSpaceOnUse">
<stop stop-color="#553B3E"/>
<stop offset="1" stop-color="#3D2432"/>
</linearGradient>
<radialGradient id="paint10_radial_2631_946" cx="0" cy="0" r="1" gradientUnits="userSpaceOnUse" gradientTransform="translate(20.9507 35.7701) rotate(-90) scale(12.7875 25.575)">
<stop stop-color="#F70A8D"/>
<stop offset="1" stop-color="#89029C"/>
</radialGradient>
<linearGradient id="paint11_linear_2631_946" x1="20.9508" y1="20.5565" x2="20.9508" y2="22.1739" gradientUnits="userSpaceOnUse">
<stop stop-color="#ECCDFF"/>
<stop offset="1" stop-color="white"/>
</linearGradient>
</defs>
</svg>
