<svg width="41" height="41" viewBox="0 0 41 41" fill="none" xmlns="http://www.w3.org/2000/svg">
<circle cx="20.972" cy="20" r="4" fill="#0D2640"/>
<path d="M20.4703 40.2468C34.12 40.2468 40.9407 31.2372 40.9407 20.1234C40.9407 9.00955 34.12 0 20.4703 0C6.82073 0 0 9.00955 0 20.1234C0 31.2372 6.82073 40.2468 20.4703 40.2468Z" fill="url(#paint0_radial_2631_527)"/>
<path d="M20.4703 40.2468C34.12 40.2468 40.9407 31.2372 40.9407 20.1234C40.9407 9.00955 34.12 0 20.4703 0C6.82073 0 0 9.00955 0 20.1234C0 31.2372 6.82073 40.2468 20.4703 40.2468Z" fill="url(#paint1_radial_2631_527)"/>
<path d="M20.4703 40.2468C34.12 40.2468 40.9407 31.2372 40.9407 20.1234C40.9407 9.00955 34.12 0 20.4703 0C6.82073 0 0 9.00955 0 20.1234C0 31.2372 6.82073 40.2468 20.4703 40.2468Z" fill="url(#paint2_radial_2631_527)"/>
<path d="M20.4703 40.2468C34.12 40.2468 40.9407 31.2372 40.9407 20.1234C40.9407 9.00955 34.12 0 20.4703 0C6.82073 0 0 9.00955 0 20.1234C0 31.2372 6.82073 40.2468 20.4703 40.2468Z" fill="url(#paint3_radial_2631_527)" fill-opacity="0.6"/>
<path d="M20.4703 40.2468C34.12 40.2468 40.9407 31.2372 40.9407 20.1234C40.9407 9.00955 34.12 0 20.4703 0C6.82073 0 0 9.00955 0 20.1234C0 31.2372 6.82073 40.2468 20.4703 40.2468Z" fill="url(#paint4_radial_2631_527)"/>
<path d="M20.4703 40.2468C34.12 40.2468 40.9407 31.2372 40.9407 20.1234C40.9407 9.00955 34.12 0 20.4703 0C6.82073 0 0 9.00955 0 20.1234C0 31.2372 6.82073 40.2468 20.4703 40.2468Z" fill="url(#paint5_radial_2631_527)"/>
<path d="M20.4703 40.2468C34.12 40.2468 40.9407 31.2372 40.9407 20.1234C40.9407 9.00955 34.12 0 20.4703 0C6.82073 0 0 9.00955 0 20.1234C0 31.2372 6.82073 40.2468 20.4703 40.2468Z" fill="url(#paint6_radial_2631_527)"/>
<path d="M20.4703 40.2468C34.12 40.2468 40.9407 31.2372 40.9407 20.1234C40.9407 9.00955 34.12 0 20.4703 0C6.82073 0 0 9.00955 0 20.1234C0 31.2372 6.82073 40.2468 20.4703 40.2468Z" fill="url(#paint7_radial_2631_527)"/>
<g filter="url(#filter0_f_2631_527)">
<path d="M12.9769 19.1341C12.4103 19.4126 11.7214 19.1868 11.4381 18.6299C11.1549 18.0729 11.3845 17.3957 11.9511 17.1172L14.4817 15.8733H18.1985C18.1975 16.2994 17.9523 16.6886 17.5646 16.8792L12.9769 19.1341Z" fill="url(#paint8_radial_2631_527)" fill-opacity="0.6" style="mix-blend-mode:multiply"/>
<path d="M12.9769 12.6126C12.4103 12.3341 11.7214 12.5598 11.4381 13.1168C11.1549 13.6737 11.3845 14.351 11.9511 14.6295L14.4817 15.8733H18.1985C18.1975 15.4473 17.9523 15.0581 17.5646 14.8675L12.9769 12.6126Z" fill="url(#paint9_radial_2631_527)" fill-opacity="0.6" style="mix-blend-mode:multiply"/>
</g>
<path d="M12.9769 18.6407C12.4103 18.9192 11.7214 18.6935 11.4381 18.1365C11.1549 17.5796 11.3845 16.9023 11.9511 16.6238L14.4817 15.38H18.1985C18.1975 15.806 17.9523 16.1952 17.5646 16.3858L12.9769 18.6407Z" fill="url(#paint10_linear_2631_527)"/>
<path d="M12.9769 12.1193C12.4103 11.8408 11.7214 12.0666 11.4381 12.6235C11.1549 13.1804 11.3845 13.8577 11.9511 14.1362L14.4817 15.3801H18.1985C18.1975 14.954 17.9523 14.5648 17.5646 14.3742L12.9769 12.1193Z" fill="url(#paint11_linear_2631_527)"/>
<g filter="url(#filter1_f_2631_527)">
<path d="M27.3267 19.1341C27.8932 19.4126 28.5822 19.1868 28.8654 18.6299C29.1487 18.0729 28.9191 17.3957 28.3525 17.1172L25.8219 15.8733H22.105C22.106 16.2994 22.3513 16.6886 22.739 16.8792L27.3267 19.1341Z" fill="url(#paint12_radial_2631_527)"/>
<path d="M27.3267 12.6126C27.8932 12.3341 28.5822 12.5598 28.8654 13.1168C29.1487 13.6737 28.9191 14.351 28.3525 14.6295L25.8219 15.8733H22.105C22.106 15.4473 22.3513 15.0581 22.739 14.8675L27.3267 12.6126Z" fill="url(#paint13_radial_2631_527)"/>
</g>
<path d="M27.9898 18.6407C28.5563 18.9192 29.2452 18.6935 29.5285 18.1365C29.8118 17.5796 29.5822 16.9023 29.0156 16.6238L26.4849 15.38H22.7681C22.7691 15.806 23.0144 16.1952 23.4021 16.3858L27.9898 18.6407Z" fill="url(#paint14_linear_2631_527)"/>
<path d="M27.9898 12.1193C28.5563 11.8408 29.2452 12.0666 29.5285 12.6235C29.8118 13.1804 29.5822 13.8577 29.0156 14.1362L26.4849 15.3801H22.7681C22.7691 14.954 23.0144 14.5648 23.4021 14.3742L27.9898 12.1193Z" fill="url(#paint15_linear_2631_527)"/>
<g filter="url(#filter2_f_2631_527)">
<path d="M16.9078 25.2781L19.2551 27.2534M21.9226 24.9561L24.2699 26.9314" stroke="#CD6256" stroke-width="1.5" stroke-linecap="round" stroke-linejoin="round"/>
</g>
<path d="M11.9832 24.6492L14.3344 26.6277" stroke="url(#paint16_linear_2631_527)" stroke-width="2" stroke-linecap="round" stroke-linejoin="round"/>
<path d="M14.3344 26.6277L17.0505 24.3294" stroke="url(#paint17_linear_2631_527)" stroke-width="2" stroke-linecap="round" stroke-linejoin="round"/>
<path d="M17.1607 24.2556L19.9771 26.6281" stroke="url(#paint18_linear_2631_527)" stroke-width="2" stroke-linecap="round" stroke-linejoin="round"/>
<path d="M22.7924 24.2556L19.976 26.6281" stroke="url(#paint19_linear_2631_527)" stroke-width="2" stroke-linecap="round" stroke-linejoin="round"/>
<path d="M22.7924 24.2556L25.6088 26.6281" stroke="url(#paint20_linear_2631_527)" stroke-width="2" stroke-linecap="round" stroke-linejoin="round"/>
<path d="M27.9832 24.6261L25.6185 26.6276" stroke="url(#paint21_linear_2631_527)" stroke-width="2" stroke-linecap="round" stroke-linejoin="round"/>
<path d="M11.9832 24.6491L14.3344 26.6277L17.1557 24.2534L19.9771 26.6277L22.7984 24.2534L25.6198 26.6277L27.9709 24.6491" stroke="url(#paint22_linear_2631_527)" stroke-width="2" stroke-linecap="round" stroke-linejoin="round"/>
<g filter="url(#filter3_f_2631_527)">
<path d="M11.9832 24.6491L14.3344 26.6277L17.1557 24.2534L19.9771 26.6277L22.7984 24.2534L25.6198 26.6277L27.9709 24.6491" stroke="#694C5E" stroke-width="0.5" stroke-linecap="round" stroke-linejoin="round"/>
</g>
<defs>
<filter id="filter0_f_2631_527" x="10.8168" y="11.9933" width="7.88171" height="7.76013" filterUnits="userSpaceOnUse" color-interpolation-filters="sRGB">
<feFlood flood-opacity="0" result="BackgroundImageFix"/>
<feBlend mode="normal" in="SourceGraphic" in2="BackgroundImageFix" result="shape"/>
<feGaussianBlur stdDeviation="0.25" result="effect1_foregroundBlur_2631_527"/>
</filter>
<filter id="filter1_f_2631_527" x="21.605" y="11.9933" width="7.88171" height="7.76013" filterUnits="userSpaceOnUse" color-interpolation-filters="sRGB">
<feFlood flood-opacity="0" result="BackgroundImageFix"/>
<feBlend mode="normal" in="SourceGraphic" in2="BackgroundImageFix" result="shape"/>
<feGaussianBlur stdDeviation="0.25" result="effect1_foregroundBlur_2631_527"/>
</filter>
<filter id="filter2_f_2631_527" x="14.6578" y="22.7061" width="11.8622" height="6.79736" filterUnits="userSpaceOnUse" color-interpolation-filters="sRGB">
<feFlood flood-opacity="0" result="BackgroundImageFix"/>
<feBlend mode="normal" in="SourceGraphic" in2="BackgroundImageFix" result="shape"/>
<feGaussianBlur stdDeviation="0.75" result="effect1_foregroundBlur_2631_527"/>
</filter>
<filter id="filter3_f_2631_527" x="10.9832" y="23.2534" width="17.9877" height="4.37427" filterUnits="userSpaceOnUse" color-interpolation-filters="sRGB">
<feFlood flood-opacity="0" result="BackgroundImageFix"/>
<feBlend mode="normal" in="SourceGraphic" in2="BackgroundImageFix" result="shape"/>
<feGaussianBlur stdDeviation="0.375" result="effect1_foregroundBlur_2631_527"/>
</filter>
<radialGradient id="paint0_radial_2631_527" cx="0" cy="0" r="1" gradientTransform="matrix(-37.2882 39.5312 -40.2128 -36.6562 34.3637 10.0625)" gradientUnits="userSpaceOnUse">
<stop stop-color="#FFF478"/>
<stop offset="0.474827" stop-color="#FFB02E"/>
<stop offset="1" stop-color="#F70A8D"/>
</radialGradient>
<radialGradient id="paint1_radial_2631_527" cx="0" cy="0" r="1" gradientTransform="matrix(-38.0194 41.6875 -42.4062 -37.375 34.3637 10.0625)" gradientUnits="userSpaceOnUse">
<stop stop-color="#FFF478"/>
<stop offset="0.474827" stop-color="#FFB02E"/>
<stop offset="1" stop-color="#F70A8D"/>
</radialGradient>
<radialGradient id="paint2_radial_2631_527" cx="0" cy="0" r="1" gradientTransform="matrix(-5.118 25.1562 -32.7759 -6.44408 20.472 15.0938)" gradientUnits="userSpaceOnUse">
<stop offset="0.787821" stop-color="#F59639" stop-opacity="0"/>
<stop offset="0.972509" stop-color="#FF7DCE"/>
</radialGradient>
<radialGradient id="paint3_radial_2631_527" cx="0" cy="0" r="1" gradientTransform="matrix(-42.4063 41.6875 -42.4063 -41.6875 23.3966 17.25)" gradientUnits="userSpaceOnUse">
<stop offset="0.314853" stop-opacity="0"/>
<stop offset="1"/>
</radialGradient>
<radialGradient id="paint4_radial_2631_527" cx="0" cy="0" r="1" gradientTransform="matrix(8.77371 39.5312 -40.2128 8.625 20.472 21.5625)" gradientUnits="userSpaceOnUse">
<stop offset="0.507903" stop-color="#7D6133" stop-opacity="0"/>
<stop offset="1" stop-color="#715B32"/>
</radialGradient>
<radialGradient id="paint5_radial_2631_527" cx="0" cy="0" r="1" gradientTransform="matrix(10.9671 15.8125 -11.6593 7.81479 21.2031 20.8438)" gradientUnits="userSpaceOnUse">
<stop stop-color="#FFB849"/>
<stop offset="1" stop-color="#FFB847" stop-opacity="0"/>
</radialGradient>
<radialGradient id="paint6_radial_2631_527" cx="0" cy="0" r="1" gradientTransform="matrix(16.8163 2.875 -2.92457 16.5312 27.0523 23)" gradientUnits="userSpaceOnUse">
<stop stop-color="#FFA64B"/>
<stop offset="0.900412" stop-color="#FFAE46" stop-opacity="0"/>
</radialGradient>
<radialGradient id="paint7_radial_2631_527" cx="0" cy="0" r="1" gradientTransform="matrix(62.1471 58.9375 -59.9537 61.0938 22.6654 18.6875)" gradientUnits="userSpaceOnUse">
<stop offset="0.185425" stop-opacity="0"/>
<stop offset="1" stop-opacity="0.4"/>
</radialGradient>
<radialGradient id="paint8_radial_2631_527" cx="0" cy="0" r="1" gradientTransform="matrix(-3.01065 8.03326 10.6805 3.86823 13.3598 12.4933)" gradientUnits="userSpaceOnUse">
<stop stop-color="#9F5E0F"/>
<stop offset="0.889024" stop-color="#9F5E0F" stop-opacity="0"/>
</radialGradient>
<radialGradient id="paint9_radial_2631_527" cx="0" cy="0" r="1" gradientTransform="matrix(-3.01065 8.03326 10.6805 3.86823 13.3598 12.4933)" gradientUnits="userSpaceOnUse">
<stop stop-color="#9F5E0F"/>
<stop offset="0.889024" stop-color="#9F5E0F" stop-opacity="0"/>
</radialGradient>
<linearGradient id="paint10_linear_2631_527" x1="14.2739" y1="19.5904" x2="11.398" y2="13.5269" gradientUnits="userSpaceOnUse">
<stop offset="0.24955" stop-color="#482641"/>
<stop offset="0.406361" stop-color="#503A4A"/>
<stop offset="0.511203" stop-color="#482641"/>
</linearGradient>
<linearGradient id="paint11_linear_2631_527" x1="12.3027" y1="15.5386" x2="14.9709" y2="10.2166" gradientUnits="userSpaceOnUse">
<stop offset="0.24955" stop-color="#482641"/>
<stop offset="0.406361" stop-color="#503A4A"/>
<stop offset="0.511203" stop-color="#482641"/>
</linearGradient>
<radialGradient id="paint12_radial_2631_527" cx="0" cy="0" r="1" gradientTransform="matrix(-11.0211 -10.4644 13.9128 -14.1605 32.9111 20.3856)" gradientUnits="userSpaceOnUse">
<stop stop-color="#E9830A"/>
<stop offset="0.801655" stop-color="#F08B13" stop-opacity="0"/>
</radialGradient>
<radialGradient id="paint13_radial_2631_527" cx="0" cy="0" r="1" gradientTransform="matrix(-11.0211 -10.4644 13.9128 -14.1605 32.9111 20.3856)" gradientUnits="userSpaceOnUse">
<stop stop-color="#E9830A"/>
<stop offset="0.801655" stop-color="#F08B13" stop-opacity="0"/>
</radialGradient>
<linearGradient id="paint14_linear_2631_527" x1="26.6927" y1="19.5904" x2="29.5687" y2="13.5269" gradientUnits="userSpaceOnUse">
<stop offset="0.24955" stop-color="#482641"/>
<stop offset="0.406361" stop-color="#503A4A"/>
<stop offset="0.511203" stop-color="#482641"/>
</linearGradient>
<linearGradient id="paint15_linear_2631_527" x1="28.664" y1="15.5386" x2="25.9958" y2="10.2166" gradientUnits="userSpaceOnUse">
<stop offset="0.24955" stop-color="#482641"/>
<stop offset="0.406361" stop-color="#503A4A"/>
<stop offset="0.511203" stop-color="#482641"/>
</linearGradient>
<linearGradient id="paint16_linear_2631_527" x1="11.5694" y1="25.9988" x2="15.3342" y2="21.5249" gradientUnits="userSpaceOnUse">
<stop stop-color="#482641"/>
<stop offset="0.322917" stop-color="#57434E"/>
<stop offset="0.4375" stop-color="#483637"/>
</linearGradient>
<linearGradient id="paint17_linear_2631_527" x1="15.8015" y1="26.8644" x2="12.9119" y2="23.3586" gradientUnits="userSpaceOnUse">
<stop offset="0.0197505" stop-color="#482641"/>
<stop offset="0.322917" stop-color="#57434E"/>
<stop offset="0.46422" stop-color="#483637"/>
</linearGradient>
<linearGradient id="paint18_linear_2631_527" x1="16.9647" y1="25.577" x2="19.936" y2="22.1188" gradientUnits="userSpaceOnUse">
<stop offset="0.0197505" stop-color="#482641"/>
<stop offset="0.322917" stop-color="#57434E"/>
<stop offset="0.46422" stop-color="#483637"/>
</linearGradient>
<linearGradient id="paint19_linear_2631_527" x1="22.9884" y1="25.577" x2="20.0171" y2="22.1188" gradientUnits="userSpaceOnUse">
<stop offset="0.0197505" stop-color="#482641"/>
<stop offset="0.322917" stop-color="#57434E"/>
<stop offset="0.46422" stop-color="#483637"/>
</linearGradient>
<linearGradient id="paint20_linear_2631_527" x1="22.5964" y1="25.577" x2="25.5677" y2="22.1188" gradientUnits="userSpaceOnUse">
<stop offset="0.0197505" stop-color="#482641"/>
<stop offset="0.322917" stop-color="#57434E"/>
<stop offset="0.46422" stop-color="#483637"/>
</linearGradient>
<linearGradient id="paint21_linear_2631_527" x1="28.6309" y1="25.5765" x2="25.6596" y2="22.1183" gradientUnits="userSpaceOnUse">
<stop offset="0.0197505" stop-color="#482641"/>
<stop offset="0.322917" stop-color="#57434E"/>
<stop offset="0.46422" stop-color="#483637"/>
</linearGradient>
<linearGradient id="paint22_linear_2631_527" x1="19.9771" y1="27.7176" x2="19.9771" y2="26.1843" gradientUnits="userSpaceOnUse">
<stop stop-color="#53265E"/>
<stop offset="1" stop-color="#53265E" stop-opacity="0"/>
</linearGradient>
</defs>
</svg>
